<?xml version="1.0" encoding="utf-8"?>
<!-- Svg Vector Icons : http://www.onlinewebfonts.com/icon -->
<!DOCTYPE svg PUBLIC "-//W3C//DTD SVG 1.1//EN" "http://www.w3.org/Graphics/SVG/1.1/DTD/svg11.dtd">
<svg version="1.1" xmlns="http://www.w3.org/2000/svg" xmlns:xlink="http://www.w3.org/1999/xlink" x="0px" y="0px" viewBox="0 0 1000 1000" enable-background="new 0 0 1000 1000" xml:space="preserve">
<metadata> Svg Vector Icons : http://www.onlinewebfonts.com/icon </metadata>
<g><g transform="translate(0.000000,512.000000) scale(0.100000,-0.100000)"><path d="M303.8,120v-4900H3797h3493.2v1349.4v1349.4h-392.4h-392.4v-957v-957H3797H1088.6V120v4115.2H3797h2708.4v-957v-957h392.4h392.4v1349.4V5020H3797H303.8V120z"/><path d="M7872,1603.4c-42.1-45.9-162.7-178-271.8-294.8L7403.1,1100l317.7-283.3c174.2-155,315.8-289,315.8-296.7c0-7.7-733.1-13.4-1627-11.5l-1626.9,3.8V125.7v-388.5l1638.4-3.8l1640.4-5.7l-329.2-292.8L7405-860l195.3-210.5c109.1-114.9,231.6-246.9,273.7-294.8l76.6-86.1l870.9,775.2c478.5,424.9,872.8,780.9,874.7,790.5c5.7,13.4-1408.8,1286.2-1699.7,1531.2l-51.7,44L7872,1603.4z"/></g></g>
</svg>